<svg width="25" height="28" viewBox="0 0 25 28" fill="none" xmlns="http://www.w3.org/2000/svg">
<path id="Vector" d="M24.5 11.2027V27.7543H19.7995V24.1001C18.197 26.5721 15.0989 27.9693 10.8257 27.9693C4.62958 27.9693 0.783691 24.6374 0.783691 19.9084C0.783691 15.5018 3.56127 11.9551 11.6804 11.9551H19.479V10.9878C19.479 6.79613 17.0219 4.43161 12.2145 4.43161C9.00961 4.43161 5.69788 5.61387 3.56127 7.33352L1.5315 3.57179C4.30908 1.31476 8.36863 0.0250244 12.7487 0.0250244C20.3336 0.132502 24.5 3.78675 24.5 11.2027ZM19.5858 19.371V15.5018H12.0009C7.08667 15.5018 5.69788 17.4364 5.69788 19.6935C5.69788 22.3804 7.94131 24.1001 11.6804 24.1001C15.4194 24.2075 18.4107 22.5954 19.5858 19.371Z" fill="white"/>
</svg>
